<svg width="413" height="128" viewBox="0 0 413 128" fill="none" xmlns="http://www.w3.org/2000/svg">
<ellipse cx="60.5" cy="64" rx="60.5" ry="64" fill="#008A62"/>
<path d="M67.67 40.125L73.55 41.2083L62.33 88.875L56.45 87.7917L67.67 40.125ZM87.77 64.5L77 54.7771V47.1125L96.26 64.5L77 81.8604V74.1958L87.77 64.5ZM33.74 64.5L53 47.1125V54.7771L42.23 64.5L53 74.1958V81.8604L33.74 64.5Z" fill="#A6ABBD"/>
<path d="M128.289 76.0469V54.3438L121.703 48.3906H165.227L164.758 60.0156L155.406 53.7578H140.641V63.8594H155.688V69.0156H140.641V76.0469L150.273 82H121.703L128.289 76.0469ZM169.047 69.0391C169.047 66.6797 169.523 64.6328 170.477 62.8984C171.445 61.1484 172.789 59.7031 174.508 58.5625C176.227 57.4062 178.266 56.5469 180.625 55.9844C182.984 55.4219 185.562 55.1406 188.359 55.1406C191.156 55.1406 193.734 55.4219 196.094 55.9844C198.453 56.5469 200.492 57.4062 202.211 58.5625C203.93 59.7031 205.266 61.1484 206.219 62.8984C207.188 64.6328 207.672 66.6797 207.672 69.0391C207.672 71.4922 207.188 73.5938 206.219 75.3438C205.266 77.0938 203.93 78.5312 202.211 79.6562C200.492 80.7812 198.453 81.6016 196.094 82.1172C193.734 82.6484 191.156 82.9141 188.359 82.9141C185.562 82.9141 182.984 82.6484 180.625 82.1172C178.266 81.6016 176.227 80.7812 174.508 79.6562C172.789 78.5312 171.445 77.0938 170.477 75.3438C169.523 73.5938 169.047 71.4922 169.047 69.0391ZM181.375 69.0391C181.375 70.4766 181.555 71.7812 181.914 72.9531C182.289 74.125 182.789 75.125 183.414 75.9531C184.055 76.7656 184.797 77.3984 185.641 77.8516C186.5 78.2891 187.406 78.5078 188.359 78.5078C189.312 78.5078 190.211 78.2891 191.055 77.8516C191.914 77.3984 192.656 76.7656 193.281 75.9531C193.922 75.125 194.422 74.125 194.781 72.9531C195.156 71.7812 195.344 70.4766 195.344 69.0391C195.344 67.5859 195.156 66.2656 194.781 65.0781C194.422 63.8906 193.922 62.875 193.281 62.0312C192.656 61.1875 191.914 60.5312 191.055 60.0625C190.211 59.5938 189.312 59.3594 188.359 59.3594C187.406 59.3594 186.5 59.5938 185.641 60.0625C184.797 60.5312 184.055 61.1875 183.414 62.0312C182.789 62.875 182.289 63.8906 181.914 65.0781C181.555 66.2656 181.375 67.5859 181.375 69.0391ZM217.305 76.2812V62.0078L211.164 56.7578L228.484 56.0547V61.0234C229.094 60.0547 229.789 59.2031 230.57 58.4688C231.367 57.7344 232.211 57.125 233.102 56.6406C234.008 56.1406 234.945 55.7656 235.914 55.5156C236.898 55.2656 237.883 55.1406 238.867 55.1406C240.164 55.1406 241.281 55.3594 242.219 55.7969C243.172 56.2344 243.953 56.8516 244.562 57.6484C245.172 58.4297 245.625 59.3594 245.922 60.4375C246.219 61.5156 246.367 62.6875 246.367 63.9531C246.367 64.3594 246.352 64.7734 246.32 65.1953C246.289 65.6172 246.227 66.0312 246.133 66.4375L237.578 67.2109C237.641 66.9609 237.672 66.7266 237.672 66.5078C237.688 66.2734 237.695 66.0469 237.695 65.8281C237.695 65.1875 237.617 64.6016 237.461 64.0703C237.32 63.5391 237.102 63.0859 236.805 62.7109C236.523 62.3203 236.156 62.0234 235.703 61.8203C235.266 61.6016 234.75 61.4922 234.156 61.4922C233.531 61.4922 232.961 61.6172 232.445 61.8672C231.93 62.1172 231.461 62.4531 231.039 62.875C230.617 63.2969 230.242 63.7891 229.914 64.3516C229.602 64.8984 229.336 65.4766 229.117 66.0859C228.914 66.6797 228.758 67.2812 228.648 67.8906C228.539 68.5 228.484 69.0703 228.484 69.6016V76.0469L236.641 82H211.188L217.305 76.2812ZM252.016 60.8359H247.984V57.2031C249.094 57.2031 250.133 57.0469 251.102 56.7344C252.07 56.4062 252.961 55.9688 253.773 55.4219C254.602 54.875 255.336 54.2422 255.977 53.5234C256.633 52.7891 257.188 52.0234 257.641 51.2266C258.094 50.4141 258.438 49.5938 258.672 48.7656C258.922 47.9219 259.047 47.1094 259.047 46.3281H263.664V56.0547H275.172V60.8359H263.664V71.3594C263.664 72.8125 263.836 73.9688 264.18 74.8281C264.539 75.6875 264.992 76.3359 265.539 76.7734C266.102 77.2109 266.711 77.4922 267.367 77.6172C268.039 77.7422 268.688 77.8047 269.312 77.8047C270.906 77.8047 272.164 77.3516 273.086 76.4453C274.023 75.5234 274.492 74.1172 274.492 72.2266C274.492 72.0859 274.492 71.9375 274.492 71.7812C274.492 71.625 274.477 71.4609 274.445 71.2891L278.477 72.4844C278.523 72.9062 278.547 73.3047 278.547 73.6797C278.547 74.8203 278.367 75.8438 278.008 76.75C277.648 77.6562 277.156 78.4531 276.531 79.1406C275.906 79.8125 275.164 80.3906 274.305 80.875C273.461 81.3594 272.555 81.75 271.586 82.0469C270.617 82.3438 269.609 82.5625 268.562 82.7031C267.516 82.8438 266.477 82.9141 265.445 82.9141C263.398 82.9141 261.547 82.7109 259.891 82.3047C258.234 81.8984 256.82 81.25 255.648 80.3594C254.492 79.4688 253.594 78.3203 252.953 76.9141C252.328 75.4922 252.016 73.7734 252.016 71.7578V60.8359ZM285.367 62.4766L279.016 56.7578L296.547 56.0547V69.25C296.547 70.25 296.641 71.1953 296.828 72.0859C297.016 72.9766 297.305 73.7578 297.695 74.4297C298.102 75.1016 298.617 75.6328 299.242 76.0234C299.867 76.4141 300.617 76.6094 301.492 76.6094C302.367 76.6094 303.172 76.4219 303.906 76.0469C304.641 75.6719 305.266 75.125 305.781 74.4062C306.312 73.6719 306.727 72.7734 307.023 71.7109C307.32 70.6484 307.469 69.4375 307.469 68.0781V62.4766L301.281 56.7578L318.648 56.0547V76.4453L324.789 81.6953L307.469 82.3984V77.1953C306.297 79.0391 304.789 80.4531 302.945 81.4375C301.117 82.4219 299.039 82.9141 296.711 82.9141C293.07 82.9141 290.266 81.8125 288.297 79.6094C286.344 77.3906 285.367 74.1016 285.367 69.7422V62.4766ZM332.57 76.2812V62.0078L326.43 56.7578L343.75 56.0547V61.1406C344.875 59.2188 346.352 57.7422 348.18 56.7109C350.023 55.6641 352.133 55.1406 354.508 55.1406C356.32 55.1406 357.93 55.4219 359.336 55.9844C360.758 56.5312 361.945 57.3594 362.898 58.4688C363.867 59.5625 364.602 60.9375 365.102 62.5938C365.602 64.2344 365.852 66.1406 365.852 68.3125V76.2812L372.203 82H350.359L354.672 76.2812V68.8047C354.672 67.8047 354.578 66.8594 354.391 65.9688C354.203 65.0781 353.906 64.2969 353.5 63.625C353.109 62.9531 352.602 62.4219 351.977 62.0312C351.352 61.6406 350.602 61.4453 349.727 61.4453C348.852 61.4453 348.047 61.6406 347.312 62.0312C346.578 62.4062 345.945 62.9609 345.414 63.6953C344.883 64.4141 344.469 65.3047 344.172 66.3672C343.891 67.4141 343.75 68.6172 343.75 69.9766V76.2812L348.062 82H326.219L332.57 76.2812ZM374.453 69.4141C374.453 67.5078 374.727 65.8281 375.273 64.375C375.836 62.9219 376.586 61.6719 377.523 60.625C378.477 59.5625 379.578 58.6797 380.828 57.9766C382.094 57.2734 383.438 56.7109 384.859 56.2891C386.281 55.8672 387.742 55.5703 389.242 55.3984C390.758 55.2266 392.227 55.1406 393.648 55.1406C395.914 55.1406 398.023 55.3906 399.977 55.8906C401.945 56.3906 403.648 57.1953 405.086 58.3047C406.523 59.4141 407.648 60.875 408.461 62.6875C409.289 64.4844 409.703 66.6797 409.703 69.2734H386.805C386.867 70.8984 387.141 72.2422 387.625 73.3047C388.125 74.3516 388.766 75.1875 389.547 75.8125C390.328 76.4219 391.219 76.8516 392.219 77.1016C393.219 77.3516 394.25 77.4766 395.312 77.4766C396.266 77.4766 397.297 77.4219 398.406 77.3125C399.516 77.2031 400.625 77 401.734 76.7031C402.844 76.3906 403.906 75.9688 404.922 75.4375C405.938 74.9062 406.82 74.2109 407.57 73.3516L409.961 75.2266C409.57 76.1797 409.023 77.0312 408.32 77.7812C407.617 78.5312 406.812 79.1953 405.906 79.7734C405 80.3359 404.016 80.8203 402.953 81.2266C401.906 81.6172 400.828 81.9375 399.719 82.1875C398.609 82.4375 397.5 82.6172 396.391 82.7266C395.281 82.8516 394.219 82.9141 393.203 82.9141C390.344 82.9141 387.758 82.6172 385.445 82.0234C383.148 81.4297 381.18 80.5625 379.539 79.4219C377.914 78.2656 376.656 76.8516 375.766 75.1797C374.891 73.4922 374.453 71.5703 374.453 69.4141ZM398.359 65.6172C398.359 64.4609 398.25 63.4922 398.031 62.7109C397.828 61.9141 397.516 61.2734 397.094 60.7891C396.672 60.3047 396.141 59.9609 395.5 59.7578C394.875 59.5391 394.141 59.4297 393.297 59.4297C391.516 59.4297 390.102 59.9688 389.055 61.0469C388.008 62.125 387.32 63.6484 386.992 65.6172H398.359Z" fill="white"/>
</svg>
